<svg width="365" height="16" viewBox="0 0 365 16" fill="none" xmlns="http://www.w3.org/2000/svg">
<g clip-path="url(#clip0_2140_174)">
<path fill-rule="evenodd" clip-rule="evenodd" d="M8.00004 1.83325C4.59428 1.83325 1.83337 4.59416 1.83337 7.99992C1.83337 11.4057 4.59428 14.1666 8.00004 14.1666C11.4058 14.1666 14.1667 11.4057 14.1667 7.99992C14.1667 4.59416 11.4058 1.83325 8.00004 1.83325ZM0.833374 7.99992C0.833374 4.04188 4.042 0.833252 8.00004 0.833252C11.9581 0.833252 15.1667 4.04188 15.1667 7.99992C15.1667 11.958 11.9581 15.1666 8.00004 15.1666C4.042 15.1666 0.833374 11.958 0.833374 7.99992ZM8.00004 4.83325C8.27618 4.83325 8.50004 5.05711 8.50004 5.33325V7.99992C8.50004 8.27606 8.27618 8.49992 8.00004 8.49992C7.7239 8.49992 7.50004 8.27606 7.50004 7.99992V5.33325C7.50004 5.05711 7.7239 4.83325 8.00004 4.83325ZM7.50004 10.6666C7.50004 10.3904 7.7239 10.1666 8.00004 10.1666H8.00671C8.28285 10.1666 8.50671 10.3904 8.50671 10.6666C8.50671 10.9427 8.28285 11.1666 8.00671 11.1666H8.00004C7.7239 11.1666 7.50004 10.9427 7.50004 10.6666Z" fill="#FF5959"/>
</g>
<path d="M29.9414 13H25.1719V4.43359H29.9414V5.3125H26.168V8.08398H29.7246V8.95117H26.168V12.1211H29.9414V13ZM34.6113 6.46094C34.7402 6.46094 34.875 6.46875 35.0156 6.48438C35.1562 6.49609 35.2812 6.51367 35.3906 6.53711L35.2676 7.43945C35.1621 7.41211 35.0449 7.39062 34.916 7.375C34.7871 7.35938 34.666 7.35156 34.5527 7.35156C34.2949 7.35156 34.0508 7.4043 33.8203 7.50977C33.5938 7.61133 33.3945 7.75977 33.2227 7.95508C33.0508 8.14648 32.916 8.37891 32.8184 8.65234C32.7207 8.92188 32.6719 9.22266 32.6719 9.55469V13H31.6934V6.57812H32.502L32.6074 7.76172H32.6484C32.7812 7.52344 32.9414 7.30664 33.1289 7.11133C33.3164 6.91211 33.5332 6.75391 33.7793 6.63672C34.0293 6.51953 34.3066 6.46094 34.6113 6.46094ZM39.5215 6.46094C39.6504 6.46094 39.7852 6.46875 39.9258 6.48438C40.0664 6.49609 40.1914 6.51367 40.3008 6.53711L40.1777 7.43945C40.0723 7.41211 39.9551 7.39062 39.8262 7.375C39.6973 7.35938 39.5762 7.35156 39.4629 7.35156C39.2051 7.35156 38.9609 7.4043 38.7305 7.50977C38.5039 7.61133 38.3047 7.75977 38.1328 7.95508C37.9609 8.14648 37.8262 8.37891 37.7285 8.65234C37.6309 8.92188 37.582 9.22266 37.582 9.55469V13H36.6035V6.57812H37.4121L37.5176 7.76172H37.5586C37.6914 7.52344 37.8516 7.30664 38.0391 7.11133C38.2266 6.91211 38.4434 6.75391 38.6895 6.63672C38.9395 6.51953 39.2168 6.46094 39.5215 6.46094ZM47.0508 9.77734C47.0508 10.3047 46.9824 10.7754 46.8457 11.1895C46.709 11.6035 46.5117 11.9531 46.2539 12.2383C45.9961 12.5234 45.6836 12.7422 45.3164 12.8945C44.9531 13.043 44.541 13.1172 44.0801 13.1172C43.6504 13.1172 43.2559 13.043 42.8965 12.8945C42.541 12.7422 42.2324 12.5234 41.9707 12.2383C41.7129 11.9531 41.5117 11.6035 41.3672 11.1895C41.2266 10.7754 41.1562 10.3047 41.1562 9.77734C41.1562 9.07422 41.2754 8.47656 41.5137 7.98438C41.752 7.48828 42.0918 7.11133 42.5332 6.85352C42.9785 6.5918 43.5078 6.46094 44.1211 6.46094C44.707 6.46094 45.2188 6.5918 45.6562 6.85352C46.0977 7.11523 46.4395 7.49414 46.6816 7.99023C46.9277 8.48242 47.0508 9.07812 47.0508 9.77734ZM42.1641 9.77734C42.1641 10.293 42.2324 10.7402 42.3691 11.1191C42.5059 11.498 42.7168 11.791 43.002 11.998C43.2871 12.2051 43.6543 12.3086 44.1035 12.3086C44.5488 12.3086 44.9141 12.2051 45.1992 11.998C45.4883 11.791 45.7012 11.498 45.8379 11.1191C45.9746 10.7402 46.043 10.293 46.043 9.77734C46.043 9.26562 45.9746 8.82422 45.8379 8.45312C45.7012 8.07812 45.4902 7.78906 45.2051 7.58594C44.9199 7.38281 44.5508 7.28125 44.0977 7.28125C43.4297 7.28125 42.9395 7.50195 42.627 7.94336C42.3184 8.38477 42.1641 8.99609 42.1641 9.77734ZM51.6504 6.46094C51.7793 6.46094 51.9141 6.46875 52.0547 6.48438C52.1953 6.49609 52.3203 6.51367 52.4297 6.53711L52.3066 7.43945C52.2012 7.41211 52.084 7.39062 51.9551 7.375C51.8262 7.35938 51.7051 7.35156 51.5918 7.35156C51.334 7.35156 51.0898 7.4043 50.8594 7.50977C50.6328 7.61133 50.4336 7.75977 50.2617 7.95508C50.0898 8.14648 49.9551 8.37891 49.8574 8.65234C49.7598 8.92188 49.7109 9.22266 49.7109 9.55469V13H48.7324V6.57812H49.541L49.6465 7.76172H49.6875C49.8203 7.52344 49.9805 7.30664 50.168 7.11133C50.3555 6.91211 50.5723 6.75391 50.8184 6.63672C51.0684 6.51953 51.3457 6.46094 51.6504 6.46094ZM63.7324 6.46094C64.4395 6.46094 64.9727 6.64648 65.332 7.01758C65.6914 7.38477 65.8711 7.97656 65.8711 8.79297V13H64.9102V8.83984C64.9102 8.32031 64.7969 7.93164 64.5703 7.67383C64.3477 7.41211 64.0156 7.28125 63.5742 7.28125C62.9531 7.28125 62.502 7.46094 62.2207 7.82031C61.9395 8.17969 61.7988 8.70898 61.7988 9.4082V13H60.832V8.83984C60.832 8.49219 60.7812 8.20312 60.6797 7.97266C60.582 7.74219 60.4336 7.57031 60.2344 7.45703C60.0391 7.33984 59.791 7.28125 59.4902 7.28125C59.0645 7.28125 58.7227 7.36914 58.4648 7.54492C58.207 7.7207 58.0195 7.98242 57.9023 8.33008C57.7891 8.67383 57.7324 9.09766 57.7324 9.60156V13H56.7598V6.57812H57.5449L57.6914 7.48633H57.7441C57.873 7.26367 58.0352 7.07617 58.2305 6.92383C58.4258 6.77148 58.6445 6.65625 58.8867 6.57812C59.1289 6.5 59.3867 6.46094 59.6602 6.46094C60.1484 6.46094 60.5566 6.55273 60.8848 6.73633C61.2168 6.91602 61.457 7.19141 61.6055 7.5625H61.6582C61.8691 7.19141 62.1582 6.91602 62.5254 6.73633C62.8926 6.55273 63.2949 6.46094 63.7324 6.46094ZM70.3418 6.46094C70.8887 6.46094 71.3574 6.58203 71.748 6.82422C72.1387 7.06641 72.4375 7.40625 72.6445 7.84375C72.8516 8.27734 72.9551 8.78516 72.9551 9.36719V9.9707H68.5195C68.5312 10.7246 68.7188 11.2988 69.082 11.6934C69.4453 12.0879 69.957 12.2852 70.6172 12.2852C71.0234 12.2852 71.3828 12.248 71.6953 12.1738C72.0078 12.0996 72.332 11.9902 72.668 11.8457V12.7012C72.3438 12.8457 72.0215 12.9512 71.7012 13.0176C71.3848 13.084 71.0098 13.1172 70.5762 13.1172C69.959 13.1172 69.4199 12.9922 68.959 12.7422C68.502 12.4883 68.1465 12.1172 67.8926 11.6289C67.6387 11.1406 67.5117 10.543 67.5117 9.83594C67.5117 9.14453 67.627 8.54688 67.8574 8.04297C68.0918 7.53516 68.4199 7.14453 68.8418 6.87109C69.2676 6.59766 69.7676 6.46094 70.3418 6.46094ZM70.3301 7.25781C69.8105 7.25781 69.3965 7.42773 69.0879 7.76758C68.7793 8.10742 68.5957 8.58203 68.5371 9.19141H71.9355C71.9316 8.80859 71.8711 8.47266 71.7539 8.18359C71.6406 7.89062 71.4668 7.66406 71.2324 7.50391C70.998 7.33984 70.6973 7.25781 70.3301 7.25781ZM78.7617 11.2422C78.7617 11.6523 78.6582 11.998 78.4512 12.2793C78.248 12.5566 77.9551 12.7656 77.5723 12.9062C77.1934 13.0469 76.7402 13.1172 76.2129 13.1172C75.7637 13.1172 75.375 13.082 75.0469 13.0117C74.7188 12.9414 74.4316 12.8418 74.1855 12.7129V11.8164C74.4473 11.9453 74.7598 12.0625 75.123 12.168C75.4863 12.2734 75.8574 12.3262 76.2363 12.3262C76.791 12.3262 77.1934 12.2363 77.4434 12.0566C77.6934 11.877 77.8184 11.6328 77.8184 11.3242C77.8184 11.1484 77.7676 10.9941 77.666 10.8613C77.5684 10.7246 77.4023 10.5938 77.168 10.4688C76.9336 10.3398 76.6094 10.1992 76.1953 10.0469C75.7852 9.89062 75.4297 9.73633 75.1289 9.58398C74.832 9.42773 74.6016 9.23828 74.4375 9.01562C74.2773 8.79297 74.1973 8.50391 74.1973 8.14844C74.1973 7.60547 74.416 7.18945 74.8535 6.90039C75.2949 6.60742 75.873 6.46094 76.5879 6.46094C76.9746 6.46094 77.3359 6.5 77.6719 6.57812C78.0117 6.65234 78.3281 6.75391 78.6211 6.88281L78.293 7.66211C78.0273 7.54883 77.7441 7.45312 77.4434 7.375C77.1426 7.29688 76.8359 7.25781 76.5234 7.25781C76.0742 7.25781 75.7285 7.33203 75.4863 7.48047C75.248 7.62891 75.1289 7.83203 75.1289 8.08984C75.1289 8.28906 75.1836 8.45312 75.293 8.58203C75.4062 8.71094 75.5859 8.83203 75.832 8.94531C76.0781 9.05859 76.4023 9.19141 76.8047 9.34375C77.207 9.49219 77.5547 9.64648 77.8477 9.80664C78.1406 9.96289 78.3652 10.1543 78.5215 10.3809C78.6816 10.6035 78.7617 10.8906 78.7617 11.2422ZM84.4805 11.2422C84.4805 11.6523 84.377 11.998 84.1699 12.2793C83.9668 12.5566 83.6738 12.7656 83.291 12.9062C82.9121 13.0469 82.459 13.1172 81.9316 13.1172C81.4824 13.1172 81.0938 13.082 80.7656 13.0117C80.4375 12.9414 80.1504 12.8418 79.9043 12.7129V11.8164C80.166 11.9453 80.4785 12.0625 80.8418 12.168C81.2051 12.2734 81.5762 12.3262 81.9551 12.3262C82.5098 12.3262 82.9121 12.2363 83.1621 12.0566C83.4121 11.877 83.5371 11.6328 83.5371 11.3242C83.5371 11.1484 83.4863 10.9941 83.3848 10.8613C83.2871 10.7246 83.1211 10.5938 82.8867 10.4688C82.6523 10.3398 82.3281 10.1992 81.9141 10.0469C81.5039 9.89062 81.1484 9.73633 80.8477 9.58398C80.5508 9.42773 80.3203 9.23828 80.1562 9.01562C79.9961 8.79297 79.916 8.50391 79.916 8.14844C79.916 7.60547 80.1348 7.18945 80.5723 6.90039C81.0137 6.60742 81.5918 6.46094 82.3066 6.46094C82.6934 6.46094 83.0547 6.5 83.3906 6.57812C83.7305 6.65234 84.0469 6.75391 84.3398 6.88281L84.0117 7.66211C83.7461 7.54883 83.4629 7.45312 83.1621 7.375C82.8613 7.29688 82.5547 7.25781 82.2422 7.25781C81.793 7.25781 81.4473 7.33203 81.2051 7.48047C80.9668 7.62891 80.8477 7.83203 80.8477 8.08984C80.8477 8.28906 80.9023 8.45312 81.0117 8.58203C81.125 8.71094 81.3047 8.83203 81.5508 8.94531C81.7969 9.05859 82.1211 9.19141 82.5234 9.34375C82.9258 9.49219 83.2734 9.64648 83.5664 9.80664C83.8594 9.96289 84.084 10.1543 84.2402 10.3809C84.4004 10.6035 84.4805 10.8906 84.4805 11.2422ZM88.4473 6.47266C89.2129 6.47266 89.7812 6.64453 90.1523 6.98828C90.5234 7.33203 90.709 7.88086 90.709 8.63477V13H90L89.8125 12.0508H89.7656C89.5859 12.2852 89.3984 12.4824 89.2031 12.6426C89.0078 12.7988 88.7812 12.918 88.5234 13C88.2695 13.0781 87.957 13.1172 87.5859 13.1172C87.1953 13.1172 86.8477 13.0488 86.543 12.9121C86.2422 12.7754 86.0039 12.5684 85.8281 12.291C85.6562 12.0137 85.5703 11.6621 85.5703 11.2363C85.5703 10.5957 85.8242 10.1035 86.332 9.75977C86.8398 9.41602 87.6133 9.22852 88.6523 9.19727L89.7598 9.15039V8.75781C89.7598 8.20312 89.6406 7.81445 89.4023 7.5918C89.1641 7.36914 88.8281 7.25781 88.3945 7.25781C88.0586 7.25781 87.7383 7.30664 87.4336 7.4043C87.1289 7.50195 86.8398 7.61719 86.5664 7.75L86.2676 7.01172C86.5566 6.86328 86.8887 6.73633 87.2637 6.63086C87.6387 6.52539 88.0332 6.47266 88.4473 6.47266ZM89.748 9.83594L88.7695 9.87695C87.9688 9.9082 87.4043 10.0391 87.0762 10.2695C86.748 10.5 86.584 10.8262 86.584 11.248C86.584 11.6152 86.6953 11.8867 86.918 12.0625C87.1406 12.2383 87.4355 12.3262 87.8027 12.3262C88.373 12.3262 88.8398 12.168 89.2031 11.8516C89.5664 11.5352 89.748 11.0605 89.748 10.4277V9.83594ZM94.5059 15.8828C93.6621 15.8828 93.0117 15.7246 92.5547 15.4082C92.0977 15.0957 91.8691 14.6562 91.8691 14.0898C91.8691 13.6875 91.9961 13.3438 92.25 13.0586C92.5078 12.7734 92.8633 12.584 93.3164 12.4902C93.1484 12.4121 93.0039 12.2949 92.8828 12.1387C92.7656 11.9824 92.707 11.8027 92.707 11.5996C92.707 11.3652 92.7715 11.1602 92.9004 10.9844C93.0332 10.8047 93.2344 10.6328 93.5039 10.4688C93.168 10.332 92.8945 10.1016 92.6836 9.77734C92.4766 9.44922 92.373 9.06836 92.373 8.63477C92.373 8.17383 92.4688 7.78125 92.6602 7.45703C92.8516 7.12891 93.1289 6.87891 93.4922 6.70703C93.8555 6.53516 94.2949 6.44922 94.8105 6.44922C94.9238 6.44922 95.0371 6.45508 95.1504 6.4668C95.2676 6.47461 95.3789 6.48828 95.4844 6.50781C95.5898 6.52344 95.6816 6.54297 95.7598 6.56641H97.9629V7.19336L96.7793 7.33984C96.8965 7.49219 96.9941 7.67578 97.0723 7.89062C97.1504 8.10547 97.1895 8.34375 97.1895 8.60547C97.1895 9.24609 96.9727 9.75586 96.5391 10.1348C96.1055 10.5098 95.5098 10.6973 94.752 10.6973C94.5723 10.6973 94.3887 10.6816 94.2012 10.6504C94.0098 10.7559 93.8633 10.873 93.7617 11.002C93.6641 11.1309 93.6152 11.2793 93.6152 11.4473C93.6152 11.5723 93.6523 11.6719 93.7266 11.7461C93.8047 11.8203 93.916 11.875 94.0605 11.9102C94.2051 11.9414 94.3789 11.957 94.582 11.957H95.7129C96.4121 11.957 96.9473 12.1035 97.3184 12.3965C97.6934 12.6895 97.8809 13.1172 97.8809 13.6797C97.8809 14.3906 97.5918 14.9355 97.0137 15.3145C96.4355 15.6934 95.5996 15.8828 94.5059 15.8828ZM94.5352 15.1211C95.0664 15.1211 95.5059 15.0664 95.8535 14.957C96.2051 14.8516 96.4668 14.6973 96.6387 14.4941C96.8145 14.2949 96.9023 14.0566 96.9023 13.7793C96.9023 13.5215 96.8438 13.3262 96.7266 13.1934C96.6094 13.0645 96.4375 12.9785 96.2109 12.9355C95.9844 12.8887 95.707 12.8652 95.3789 12.8652H94.2656C93.9766 12.8652 93.7246 12.9102 93.5098 13C93.2949 13.0898 93.1289 13.2227 93.0117 13.3984C92.8984 13.5742 92.8418 13.793 92.8418 14.0547C92.8418 14.4023 92.9883 14.666 93.2812 14.8457C93.5742 15.0293 93.9922 15.1211 94.5352 15.1211ZM94.7871 9.98828C95.252 9.98828 95.6016 9.87109 95.8359 9.63672C96.0703 9.40234 96.1875 9.06055 96.1875 8.61133C96.1875 8.13086 96.0684 7.77148 95.8301 7.5332C95.5918 7.29102 95.2402 7.16992 94.7754 7.16992C94.3301 7.16992 93.9863 7.29492 93.7441 7.54492C93.5059 7.79102 93.3867 8.15234 93.3867 8.62891C93.3867 9.06641 93.5078 9.40234 93.75 9.63672C93.9922 9.87109 94.3379 9.98828 94.7871 9.98828ZM101.701 6.46094C102.248 6.46094 102.717 6.58203 103.107 6.82422C103.498 7.06641 103.797 7.40625 104.004 7.84375C104.211 8.27734 104.314 8.78516 104.314 9.36719V9.9707H99.8789C99.8906 10.7246 100.078 11.2988 100.441 11.6934C100.805 12.0879 101.316 12.2852 101.977 12.2852C102.383 12.2852 102.742 12.248 103.055 12.1738C103.367 12.0996 103.691 11.9902 104.027 11.8457V12.7012C103.703 12.8457 103.381 12.9512 103.061 13.0176C102.744 13.084 102.369 13.1172 101.936 13.1172C101.318 13.1172 100.779 12.9922 100.318 12.7422C99.8613 12.4883 99.5059 12.1172 99.252 11.6289C98.998 11.1406 98.8711 10.543 98.8711 9.83594C98.8711 9.14453 98.9863 8.54688 99.2168 8.04297C99.4512 7.53516 99.7793 7.14453 100.201 6.87109C100.627 6.59766 101.127 6.46094 101.701 6.46094ZM101.689 7.25781C101.17 7.25781 100.756 7.42773 100.447 7.76758C100.139 8.10742 99.9551 8.58203 99.8965 9.19141H103.295C103.291 8.80859 103.23 8.47266 103.113 8.18359C103 7.89062 102.826 7.66406 102.592 7.50391C102.357 7.33984 102.057 7.25781 101.689 7.25781Z" fill="#FF5959"/>
<defs>
<clipPath id="clip0_2140_174">
<rect width="16" height="16" fill="white"/>
</clipPath>
</defs>
</svg>
