<svg width="18" height="13" viewBox="0 0 18 13" fill="none" xmlns="http://www.w3.org/2000/svg">
<path fill-rule="evenodd" clip-rule="evenodd" d="M0.671214 0.671214C1.10098 0.241443 1.68388 0 2.29167 0H15.625C16.2328 0 16.8157 0.241443 17.2455 0.671214C17.6752 1.10098 17.9167 1.68388 17.9167 2.29167V3.95833C17.9167 4.30351 17.6368 4.58333 17.2917 4.58333C16.7944 4.58333 16.3175 4.78088 15.9658 5.13251C15.6142 5.48414 15.4167 5.96105 15.4167 6.45833C15.4167 6.95561 15.6142 7.43253 15.9658 7.78416C16.3175 8.13579 16.7944 8.33333 17.2917 8.33333C17.6368 8.33333 17.9167 8.61316 17.9167 8.95833V10.625C17.9167 11.2328 17.6752 11.8157 17.2455 12.2455C16.8157 12.6752 16.2328 12.9167 15.625 12.9167H2.29167C1.68388 12.9167 1.10098 12.6752 0.671214 12.2455C0.241443 11.8157 0 11.2328 0 10.625V8.95833C0 8.61316 0.279822 8.33333 0.625 8.33333C1.12228 8.33333 1.59919 8.13579 1.95083 7.78416C2.30246 7.43253 2.5 6.95561 2.5 6.45833C2.5 5.96105 2.30246 5.48414 1.95083 5.13251C1.59919 4.78088 1.12228 4.58333 0.625 4.58333C0.279822 4.58333 0 4.30351 0 3.95833V2.29167C0 1.68388 0.241443 1.10098 0.671214 0.671214ZM10.4167 11.6667V10.625C10.4167 10.2798 10.1368 10 9.79167 10C9.44649 10 9.16667 10.2798 9.16667 10.625V11.6667H2.29167C2.0154 11.6667 1.75045 11.5569 1.5551 11.3616C1.35975 11.1662 1.25 10.9013 1.25 10.625V9.52021C1.8459 9.39856 2.39822 9.10453 2.83471 8.66804C3.42076 8.08199 3.75 7.28713 3.75 6.45833C3.75 5.62953 3.42076 4.83468 2.83471 4.24862C2.39822 3.81214 1.8459 3.51811 1.25 3.39646V2.29167C1.25 2.0154 1.35975 1.75045 1.5551 1.5551C1.75045 1.35975 2.0154 1.25 2.29167 1.25H9.16667V2.29167C9.16667 2.63684 9.44649 2.91667 9.79167 2.91667C10.1368 2.91667 10.4167 2.63684 10.4167 2.29167V1.25H15.625C15.9013 1.25 16.1662 1.35975 16.3616 1.5551C16.5569 1.75045 16.6667 2.0154 16.6667 2.29167V3.39646C16.0708 3.51811 15.5184 3.81213 15.082 4.24862C14.4959 4.83468 14.1667 5.62953 14.1667 6.45833C14.1667 7.28713 14.4959 8.08199 15.082 8.66804C15.5184 9.10453 16.0708 9.39856 16.6667 9.52021V10.625C16.6667 10.9013 16.5569 11.1662 16.3616 11.3616C16.1662 11.5569 15.9013 11.6667 15.625 11.6667H10.4167ZM9.79167 5C10.1368 5 10.4167 5.27982 10.4167 5.625V7.29167C10.4167 7.63684 10.1368 7.91667 9.79167 7.91667C9.44649 7.91667 9.16667 7.63684 9.16667 7.29167V5.625C9.16667 5.27982 9.44649 5 9.79167 5Z" fill="white"/>
</svg>
