<svg width="13" height="13" viewBox="0 0 13 13" fill="none" xmlns="http://www.w3.org/2000/svg">
<path fill-rule="evenodd" clip-rule="evenodd" d="M6.14645 0.146447C6.34171 -0.0488155 6.65829 -0.0488155 6.85355 0.146447L10.1869 3.47978C10.3821 3.67504 10.3821 3.99162 10.1869 4.18689C9.99163 4.38215 9.67504 4.38215 9.47978 4.18689L7 1.70711V8.5C7 8.77614 6.77614 9 6.5 9C6.22386 9 6 8.77614 6 8.5V1.70711L3.52022 4.18689C3.32496 4.38215 3.00838 4.38215 2.81311 4.18689C2.61785 3.99162 2.61785 3.67504 2.81311 3.47978L6.14645 0.146447ZM0.5 8C0.776142 8 1 8.22386 1 8.5V11.1667C1 11.3877 1.0878 11.5996 1.24408 11.7559C1.40036 11.9122 1.61232 12 1.83333 12H11.1667C11.3877 12 11.5996 11.9122 11.7559 11.7559C11.9122 11.5996 12 11.3877 12 11.1667V8.5C12 8.22386 12.2239 8 12.5 8C12.7761 8 13 8.22386 13 8.5V11.1667C13 11.6529 12.8068 12.1192 12.463 12.463C12.1192 12.8068 11.6529 13 11.1667 13H1.83333C1.3471 13 0.880787 12.8068 0.536971 12.463C0.193154 12.1192 0 11.6529 0 11.1667V8.5C0 8.22386 0.223858 8 0.5 8Z" fill="#59B2FF"/>
</svg>
